<?xml version="1.0" encoding="utf-8"?>
<!-- Generator: Adobe Illustrator 24.1.2, SVG Export Plug-In . SVG Version: 6.00 Build 0)  -->
<svg version="1.1" id="Layer_1" xmlns="http://www.w3.org/2000/svg" xmlns:xlink="http://www.w3.org/1999/xlink" x="0px" y="0px"
	 viewBox="0 0 927.03 214.55" style="enable-background:new 0 0 927.03 214.55;" xml:space="preserve">
<style type="text/css">
	.st0{fill:#C10042;}
	.st1{fill:#929497;}
	.st2{enable-background:new    ;}
</style>
<g>
	<g>
		<path class="st0" d="M412.01,146.6l-4.99,5.92l-1.55-1.35l5.16-5.74c-0.82-0.76-1.44-1.44-2.23-2.14l1.15-1.15
			c1.96,1.86,3.69,3.29,5.86,5.04l-0.99,1.27C413.62,147.82,412.8,147.23,412.01,146.6 M402.01,131.88l-8.09,4.72
			c0.29,0.57,0.6,1.23,0.96,1.78l8.11-4.74C402.59,132.93,402.37,132.55,402.01,131.88 M407.21,139.43l-4.38,3.79l2.23-6.49
			c-0.4-0.56-0.58-0.94-0.99-1.45l-7.85,5.33c0.35,0.53,0.78,1.01,1.15,1.56l4.72-3.27l-2.22,6.54c0.38,0.43,0.77,1.09,1.31,1.53
			l7.27-6.23C408.05,140.3,407.56,139.91,407.21,139.43 M417.87,151.03c1.28,0.69,2.52,1.42,3.92,2.08l0.84-1.39
			c-1.93-1-3.75-2.14-5.37-3.27l-5.33,7.83c2.02,1.34,3.87,2.46,5.95,3.66l0.86-1.38l-4.3-2.53l1.45-2.04l2.85,1.71l0.83-1.33
			c-0.91-0.5-1.87-1.08-2.87-1.69L417.87,151.03z M444.24,121.86c-7.37,0-13.39-6.05-13.39-13.4c0-7.4,6.02-13.42,13.39-13.42
			c7.42,0,13.38,6.01,13.38,13.42C457.62,115.85,451.63,121.86,444.24,121.86 M444.41,117.43c4.89,0,8.91-4.02,8.91-8.91
			c0-4.07-2.83-7.6-6.72-8.57c-0.05-0.4-0.16-2.26-0.16-2.26h-4.49c0,0-0.1,2.02-0.14,2.42c-3.73,1.13-6.25,4.53-6.25,8.41
			C435.56,113.41,439.58,117.43,444.41,117.43 M424.73,57.86v-0.44c-0.05-2.42,1.81-4.42,4.25-4.62c2.58-0.25,4.87,1.65,5.09,4.24
			v0.38c0,2.42-1.83,4.49-4.31,4.72C427.25,62.36,424.94,60.47,424.73,57.86 M426.44,57.7c0.13,1.67,1.6,2.88,3.21,2.75
			c1.58-0.16,2.77-1.43,2.77-3.02c0.06-0.08,0-0.17,0-0.27c-0.14-1.68-1.58-2.85-3.25-2.7c-1.59,0.12-2.78,1.38-2.72,2.97
			L426.44,57.7L426.44,57.7z M445.94,60.01C445.15,60,444.79,60,444.02,60l2.34-4.84l2.12-4.4l2.1,0.22l1.1,4.18l1.53,5.62
			c-0.71-0.13-1.26-0.24-1.92-0.28l-0.54-1.76c-1.39-0.22-2.64-0.28-3.93-0.34L445.94,60.01z M447.5,56.82
			c1.02,0.05,1.97,0.16,2.93,0.3l-0.5-1.96l-0.63-2.02l-0.95,2.02L447.5,56.82z M438.17,52.64l0.83,7.67l2.01-0.21l-0.79-7.61
			l3.05-0.19l-0.12-1.71c-3.4,0.2-4.8,0.33-8.17,0.84l0.23,1.62L438.17,52.64z M438.49,156.49l-0.68,5.72l-2.75-6.28
			c-0.64-0.13-1.05-0.29-1.7-0.4l-2.16,9.26c0.67,0.18,1.31,0.25,2,0.37l1.16-5.69l2.79,6.34c0.63,0.1,1.35,0.29,2.09,0.28
			l1.03-9.56C439.72,156.5,439.07,156.58,438.49,156.49 M492.87,136.61l-6.88-3.79l-0.88,1.58l8.25,4.61l3.18-5.7l-1.42-0.76
			L492.87,136.61z M482.5,137.99l9.36,3.08c-0.22,0.28-0.39,0.54-0.59,0.82c-0.16,0.21-0.36,0.42-0.49,0.7l-1.64-0.59l-2.56,3.19
			l0.93,1.46c-0.38,0.43-0.81,0.9-1.3,1.39l-3.71-6.15l-1.37-2.27L482.5,137.99z M483.57,140.14l1.11,1.75l1.02,1.77l1.37-1.77
			l0.36-0.44L483.57,140.14z M473.73,152.65c0.4,0.7,0.59,1.51,0.63,2.34c0,0.65-0.14,1.31-0.41,1.91
			c-0.44,0.87-1.09,1.65-1.99,2.18c-2.2,1.28-5.04,0.52-6.38-1.74c-0.05-0.13-0.11-0.27-0.19-0.43c-0.27-0.6-0.4-1.27-0.45-1.91
			c0.06-1.67,0.87-3.2,2.36-4.07C469.53,149.66,472.41,150.42,473.73,152.65 M472.67,154.99c0-0.56-0.14-1.07-0.41-1.55
			c-0.78-1.45-2.63-1.92-4.07-1.09c-1.02,0.55-1.54,1.58-1.54,2.65c0.03,0.49,0.15,1.03,0.44,1.49c0.08,0.14,0.18,0.29,0.32,0.45
			c0.9,1.08,2.5,1.33,3.73,0.62c0.34-0.17,0.61-0.39,0.82-0.62C472.41,156.39,472.67,155.66,472.67,154.99 M477.19,143.81l3.89,4.2
			l-6.54-1.93c-0.54,0.41-0.91,0.56-1.39,0.98l5.69,7.65c0.48-0.38,0.99-0.84,1.44-1.23l-3.45-4.6l6.6,1.99
			c0.45-0.39,1.1-0.84,1.55-1.4l-6.59-6.96C478.05,142.88,477.64,143.38,477.19,143.81 M519.08,108.52c0,0.87-0.04,1.75-0.14,2.45
			l-0.02,0.19l-0.2,0.1c-3.18,1.89-7.29,2.97-11.41,3.08c-0.1,0.52-0.55,4.24-0.62,4.77c3.84,1.11,7.57,3.21,10.16,5.89l0.11,0.17
			v0.17c-0.2,1.46-0.72,3.43-1.3,4.71l-0.07,0.2l-0.19,0.03c-3.6,1.04-7.85,1-11.77,0.03c-0.19,0.49-1.64,3.95-1.79,4.45
			c3.44,2.17,6.48,5.16,8.2,8.36l0.09,0.18l-0.06,0.19c-0.54,1.27-1.54,3.11-2.44,4.21l-0.1,0.17h-0.23
			c-3.68,0.04-7.78-1.05-11.37-3.04c-0.33,0.43-2.72,3.59-3.05,4.02c2.82,2.91,4.97,6.6,5.83,10.23l0.06,0.19l-0.11,0.13
			c-0.82,1.11-2.33,2.59-3.42,3.47l-0.13,0.11l-0.27-0.05c-3.54-0.94-7.28-3.08-10.18-5.89c-0.43,0.32-3.4,2.64-3.84,2.97
			c1.9,3.48,3.05,7.48,3.05,11.1v0.5l-0.22,0.12c-1.09,0.88-2.91,1.94-4.21,2.47l-0.13,0.05l-0.21-0.07
			c-3.18-1.85-6.24-4.88-8.32-8.35c-0.5,0.22-4.11,1.77-4.61,1.98c0.49,1.93,0.79,3.95,0.84,5.95c0,2.02-0.35,4.03-0.84,5.85
			l-0.03,0.18l-0.19,0.11c-1.21,0.5-3.25,1.01-4.67,1.26l-0.22,0.03l-0.12-0.15c-2.74-2.61-4.84-6.32-5.95-10.2
			c-0.49,0.04-4.23,0.54-4.76,0.65c-0.06,4.07-1.18,8.19-3.12,11.38l-0.1,0.17l-0.22,0.03c-1.3,0.2-3.38,0.2-4.8,0l-0.17-0.03
			l-0.13-0.17c-1.87-3.2-2.99-7.32-3.08-11.38c-0.56-0.05-4.5-0.62-5.05-0.65c-1.08,3.85-3.2,7.54-5.87,10.18l-0.14,0.14l-0.22-0.03
			c-1.46-0.22-3.38-0.78-4.67-1.31l-0.15-0.08l-0.07-0.16c-0.55-1.82-0.83-3.85-0.83-5.87c0-1.98,0.28-3.96,0.78-5.89
			c-0.5-0.22-3.91-1.6-4.4-1.82c-2.11,3.53-5.15,6.59-8.37,8.38l-0.17,0.1l-0.2-0.05c-1.33-0.59-3.08-1.6-4.22-2.45l-0.14-0.14
			v-0.38c0-3.66,1.11-7.69,3.02-11.22c-0.42-0.33-3.6-2.74-4.04-3.07c-2.91,2.81-6.62,4.92-10.21,5.84l-0.18,0.06l-0.2-0.13
			c-1.1-0.88-2.51-2.31-3.39-3.43l-0.12-0.19l0.05-0.19c0.95-3.62,3.1-7.31,5.89-10.17c-0.32-0.43-2.73-3.55-3.07-4.02
			c-3.55,1.99-7.69,3.14-11.37,3.04h-0.2l-0.13-0.13c-0.86-1.14-1.89-2.96-2.44-4.24l-0.08-0.19l0.08-0.17
			c1.85-3.24,4.88-6.23,8.33-8.31c-0.22-0.53-1.7-4.01-1.95-4.51c-3.93,0.98-8.2,1.01-11.79,0l-0.17-0.05l-0.11-0.16
			c-0.48-1.21-1.02-3.25-1.24-4.68l-0.04-0.23l0.13-0.17c2.61-2.66,6.29-4.77,10.22-5.94c-0.04-0.55-0.62-4.51-0.68-5.06
			c-4.1-0.05-8.23-1.11-11.43-3.02l-0.16-0.11l-0.01-0.22c-0.09-0.67-0.12-1.54-0.12-2.42c0-0.86,0.03-1.71,0.12-2.42l0.01-0.22
			l0.16-0.09c3.21-1.89,7.33-2.99,11.43-3.05c0.09-0.54,0.57-4.39,0.63-4.91c-3.89-1.11-7.6-3.24-10.23-5.9l-0.11-0.13l0.04-0.21
			c0.17-1.48,0.73-3.46,1.28-4.69l0.06-0.18l0.19-0.05c3.55-1.05,7.84-1.02,11.78-0.05c0.22-0.48,1.66-3.95,1.87-4.47
			c-3.48-2.11-6.54-5.1-8.36-8.34l-0.09-0.21l0.09-0.19c0.57-1.3,1.6-3.06,2.41-4.16l0.13-0.17h0.22c3.72-0.05,7.83,1.08,11.37,3.05
			c0.33-0.4,2.75-3.66,3.08-4.1c-2.81-2.93-4.94-6.6-5.85-10.23l-0.04-0.16l0.08-0.16c0.9-1.13,2.39-2.59,3.48-3.45l0.17-0.11
			l0.16,0.03c3.66,0.94,7.35,3.11,10.22,5.91c0.42-0.33,3.29-2.55,3.72-2.87c-1.98-3.46-3.08-7.5-3.08-11.08V45.2l0.18-0.13
			c1.08-0.84,2.9-1.89,4.2-2.42l0.14-0.09l0.22,0.09c3.2,1.81,6.22,4.84,8.32,8.32c0.51-0.19,4.24-1.81,4.76-2.02
			c-0.49-1.93-0.79-3.94-0.76-5.93c0-2.06,0.25-4.03,0.8-5.84l0.03-0.23l0.19-0.05c1.21-0.51,3.22-1.05,4.63-1.26l0.23-0.03
			l0.16,0.14c2.67,2.59,4.79,6.31,5.92,10.23c0.55-0.06,4.48-0.55,5-0.65c0.09-4.03,1.19-8.15,3.12-11.36l0.08-0.17l0.2-0.05
			c1.41-0.17,3.48-0.17,4.84,0l0.18,0.05l0.11,0.17c1.94,3.2,3.06,7.32,3.06,11.32c0.59,0.13,4.43,0.63,4.98,0.68
			c1.15-3.92,3.26-7.6,5.94-10.21l0.12-0.13l0.18,0.05c1.46,0.16,3.44,0.7,4.71,1.26l0.16,0.06l0.06,0.22
			c0.55,1.8,0.81,3.75,0.81,5.79c-0.03,2.01-0.33,4.03-0.81,5.97c0.49,0.2,4.22,1.76,4.74,1.98c2.07-3.47,5.05-6.48,8.29-8.32
			l0.19-0.09l0.19,0.09c1.28,0.54,3.08,1.58,4.18,2.44l0.16,0.1v0.5c0,3.68-1.14,7.7-3.06,11.12c0.41,0.32,3.5,2.73,3.96,3.09
			c2.9-2.82,6.6-4.98,10.23-5.87l0.16-0.09l0.16,0.17c1.1,0.81,2.57,2.35,3.41,3.45l0.15,0.16l-0.06,0.19
			c-0.93,3.64-3.12,7.33-5.91,10.22c0.32,0.45,2.65,3.5,3,3.94c3.62-1.95,7.71-3.06,11.42-2.99h0.17l0.12,0.16
			c0.9,1.15,1.93,2.94,2.43,4.16l0.12,0.24l-0.12,0.18c-1.84,3.21-4.87,6.18-8.34,8.3c0.21,0.53,1.62,4.01,1.89,4.5
			c3.89-0.98,8.18-1,11.72,0l0.21,0.04l0.08,0.2c0.49,1.23,1.07,3.24,1.26,4.71l0.03,0.18l-0.15,0.15c-2.6,2.7-6.31,4.81-10.21,5.91
			c0.08,0.54,0.56,4.34,0.66,4.88c4.1,0.09,8.2,1.19,11.37,3.07l0.2,0.12l0.02,0.19C519.04,106.78,519.08,107.62,519.08,108.52
			 M406.72,64.89l6.14,6.84c0.86,0.92,1.8,0.81,3.04-0.16c7.76-6.09,17.72-9.69,28.33-9.69c10.62,0,20.59,3.59,28.43,9.69
			c1.23,0.9,2.14,1.08,3.04,0.16l6.15-6.84c0.7-0.76,0.7-1.8-0.64-2.92c-10.3-8.02-23.02-12.97-37-12.97
			c-13.9,0-26.8,4.95-36.92,13.01C405.97,63.09,406.03,64.13,406.72,64.89 M407.14,93.66c-0.68-0.44-1.4-0.94-1.99-0.68
			c-0.48,0.15-0.83,0.65-1.08,1.47c-2.88,9.88-2.88,18.26,0,28.02c0.19,0.63,0.41,1.27,0.99,1.43c0.47,0.2,1.17,0,2.08-0.63
			l19.02-12.95c0.71-0.47,1.14-1.15,1.14-1.83c0-0.74-0.43-1.38-1.14-1.88L407.14,93.66z M411.3,82.33
			c0.09,0.69,0.88,1.05,1.57,1.37l20.72,10.07c0.82,0.39,1.59,0.39,2.22,0.07c0.58-0.38,0.96-1.04,1.01-1.93l1.67-22.99
			c0.09-1.11-0.07-1.76-0.46-2.1c-0.44-0.38-1.09-0.27-1.71-0.16c-9.93,2.39-17.17,6.59-24.31,14.03
			C411.43,81.34,411.17,81.89,411.3,82.33 M411.6,134.89c0,0.39,0.27,0.88,0.77,1.41c7.14,7.51,14.36,11.68,24.29,14.01
			c0.64,0.19,1.26,0.29,1.7-0.06c0.45-0.33,0.58-1.02,0.5-2.11c0-0.03-1.69-23.04-1.69-23.04c-0.07-0.87-0.4-1.54-1.01-1.89
			c-0.62-0.36-1.39-0.36-2.22,0.01l-20.7,10.08c-0.72,0.34-1.51,0.72-1.61,1.39C411.62,134.75,411.6,134.84,411.6,134.89
			 M444.24,123.31c8.2,0,14.86-6.65,14.86-14.85c0-8.19-6.66-14.85-14.86-14.88c-8.19,0-14.85,6.69-14.85,14.88
			C429.39,116.66,436.05,123.31,444.24,123.31 M450.52,149.92c0.35,0.28,0.93,0.36,1.81,0.14c9.9-2.38,17.16-6.57,24.24-14
			c0.42-0.49,0.88-0.99,0.75-1.55c-0.13-0.54-0.58-1.02-1.55-1.47l-20.75-10.07c-0.79-0.37-1.55-0.37-2.18-0.04
			c-0.61,0.39-0.98,1.04-1.04,1.95l-1.68,22.97C450.09,148.6,450,149.46,450.52,149.92 M481.47,123.14c0.62,0.4,1.33,0.88,1.98,0.66
			c0.44-0.13,0.82-0.62,1.06-1.49c2.9-9.85,2.9-18.26,0-27.99c-0.18-0.61-0.46-1.24-0.97-1.47c-0.52-0.19-1.17,0.03-2.1,0.66
			l-19.03,12.94c-0.74,0.5-1.11,1.17-1.11,1.87c0,0.69,0.38,1.37,1.11,1.86L481.47,123.14z M477.27,81.96
			c0.02-0.39-0.22-0.89-0.77-1.43c-7.07-7.48-14.33-11.66-24.29-14.03c-0.56-0.14-1.21-0.28-1.64,0.1
			c-0.45,0.36-0.57,1.05-0.48,2.08l1.64,23.04c0.05,0.87,0.45,1.57,1.03,1.92c0.64,0.36,1.4,0.3,2.2-0.09l20.75-10.01
			c0.67-0.32,1.42-0.67,1.57-1.38C477.27,82.11,477.3,82.05,477.27,81.96 M388.68,123.08l8.83-2.56c0.83-0.24,1.51-1.11,1.44-2.19
			c-3.17-16.45,0.86-29.78,10.5-40.47c0.98-0.69,1.08-2.12,0.15-3.1l-6.42-6.45c-0.62-0.71-1.76-0.71-2.73,0.28
			c-12.3,12.95-18.52,32.82-13.96,53.14C386.74,122.7,387.51,123.41,388.68,123.08 M498.46,127.81l-8.85-3.02
			c-0.46-0.17-1.67-0.17-2.3,1.39c-7.15,17.15-23.79,28.88-43.06,28.88c-19.3,0-36.25-12-43.09-29.15
			c-0.51-1.29-1.75-1.29-2.22-1.12l-8.8,3.02c-0.96,0.34-1.53,1.19-1.03,2.42c8.65,22.07,30.15,37.65,55.14,37.65
			c24.98,0,46.59-15.69,55.26-37.74C499.96,128.97,499.41,128.15,498.46,127.81 M488.23,68.49c-0.87-1.06-2.3-0.9-2.72-0.16
			l-6.4,6.43c-0.94,0.98-0.85,2.4,0.13,3.1c9.66,10.69,13.69,23.99,10.52,40.47c-0.07,1.08,0.61,1.95,1.45,2.19l8.85,2.56
			c1.18,0.33,1.93-0.38,2.18-1.39C506.8,101.41,500.56,81.46,488.23,68.49 M467.62,66.09l2.04-3.92l5.5-2.55
			c-0.58-0.41-1.2-0.7-1.78-1.09l-3.79,1.72l-0.7-4.11c-0.79-0.37-1.27-0.54-2.09-0.87l1.1,5.98l-2.04,3.87L467.62,66.09z
			 M457.32,155.06c-2.74,0.6-4.85,1.1-7.57,1.52l0.25,1.58c1.01-0.16,1.93-0.28,2.99-0.41l1.37,7.61l2.02-0.38l-1.64-7.58
			c1.04-0.26,1.99-0.52,3.03-0.76L457.32,155.06z M430.39,156.39v0.51c-0.14,1.26-1,2.53-2.38,2.69l0.32,4.39
			c-0.64-0.15-1.37-0.36-2.05-0.65l-0.07-4.13l-1.85-0.79l-1.5,3.64c-0.61-0.2-1.22-0.4-1.81-0.69l1.9-4.43l0.23-0.55l1.55-3.66
			l4.22,1.63C429.89,154.7,430.32,155.54,430.39,156.39 M428.62,156.39c-0.06-0.26-0.16-0.47-0.49-0.62l-2.36-0.87l-0.53,1.49
			l-0.19,0.55l-0.02,0.03l2.15,0.81c0.59,0.26,1.16-0.26,1.37-0.84C428.62,156.78,428.68,156.58,428.62,156.39 M457.26,61.74
			c-0.75-0.22-1.31-0.31-2.14-0.55l1.53-5.22l1.12-3.72c1.61,0.4,3.15,0.92,4.68,1.42c0.87,0.27,1.33,1.25,1.42,2.3
			c0.06,1.42-0.65,2.96-2.08,3.29l0.56,4.2c-0.67-0.28-1.17-0.49-1.92-0.78l-0.49-3.67l-1.8-0.55L457.26,61.74z M458.56,56.82
			l2.11,0.68c0.58,0.17,1.34-0.74,1.34-1.52c0-0.37-0.13-0.71-0.63-0.82c-0.78-0.3-1.31-0.43-2.16-0.65l-0.43,1.47L458.56,56.82z
			 M448.32,160.87l2.04,4.95c-0.67,0.03-1.29,0.1-1.88,0.16l-0.63-1.6l-4.08,0.11l-0.47,1.67c-0.65-0.06-1.26-0.08-1.91-0.08
			l1.76-5.22l1.25-3.96l0.06-0.13l2.08-0.09l0.11,0.25L448.32,160.87z M447.09,162.67l-0.73-1.8l-0.74-1.95l-0.64,1.95l-0.63,1.92
			L447.09,162.67z M459.55,154.27l3.12,8.9c0.61-0.21,1.26-0.4,1.87-0.66l-3.02-8.86C460.69,153.93,460.31,154.04,459.55,154.27
			 M414.3,60.39l-0.52-0.94c1.37-0.87,2.85-1.62,4.27-2.38c1.67-0.92,4.03,1.31,3.87,3.32c-0.03,0.35-0.13,0.68-0.34,1l3.42,2.49
			c-0.64,0.3-1.13,0.56-1.9,0.89l-3-2.19l-1.65,0.89l1.76,2.91c-0.68,0.43-1.1,0.7-1.89,1.17L414.3,60.39z M416.37,59.95l0.26,0.44
			l0.95,1.65l1.98-1.04c0.18-0.09,0.29-0.32,0.32-0.61c0.04-0.89-0.61-2.1-1.54-1.54C417.61,59.23,417.16,59.5,416.37,59.95"/>
		<g>
			<path class="st0" d="M318.87,125.02l0.21,5.38c0.03,0.82-0.55,1.53-1.36,1.65c-3.14,0.5-8.14,1.64-13.03,1.64
				c-13.23,0-19.14-6.79-19.14-22.03h0.01c0-0.11-0.01-0.22-0.01-0.33c0-15.23,5.9-22.03,19.14-22.03c4.89,0,9.89,1.14,13.03,1.64
				c0.8,0.12,1.39,0.83,1.36,1.65l-0.21,5.38c-0.02,0.44-0.22,0.86-0.54,1.15c-0.33,0.29-0.78,0.43-1.22,0.39
				c-3.51-0.31-7.8-1.36-12.41-1.36c-6.85,0-9.28,3.45-9.28,13.18c0,0.37,0.01,0.73,0.01,1.09c0,0.21,0,0.43,0.01,0.63
				c0.01,0.31,0.02,0.61,0.04,0.91c0.01,0.28,0.02,0.56,0.05,0.83c0.01,0.15,0.02,0.29,0.03,0.43c0.59,7.03,3.2,9.62,9.14,9.62
				c4.62,0,8.9-1.05,12.41-1.36c0.44-0.05,0.88,0.09,1.22,0.38C318.65,124.16,318.85,124.59,318.87,125.02 M236.73,90.01
				c-4.29,0.26-8.5,2.7-11.13,4.57v-2.64c0-0.89-0.72-1.61-1.62-1.61h-6.48c-0.89,0-1.62,0.72-1.62,1.61v39.22
				c0,0.89,0.72,1.61,1.62,1.61h6.48c0.89,0,1.62-0.72,1.62-1.61v-27.11c1.46-1.22,5.98-4.61,11.37-5.08
				c0.83-0.07,1.47-0.77,1.47-1.6v-5.75c0-0.44-0.18-0.86-0.51-1.17C237.61,90.14,237.17,89.97,236.73,90.01 M259.36,114.39
				c-3.81,0.36-5.62,2.1-5.62,5.45c0,2.06,0.57,5.54,4.34,5.54c4.48,0,10.57-1.69,10.63-1.71v-9.77L259.36,114.39z M278.41,103.68
				v28.14c0,0.47-0.21,0.91-0.55,1.22c-0.36,0.31-0.83,0.44-1.28,0.38c-3.29-0.46-4.86-1.49-6.42-2.69
				c-0.07,0.03-7.35,2.97-13.86,2.97c-7.84,0-12.34-4.95-12.34-13.59c0-8.44,4.12-12.18,14.21-12.93l10.54-0.85v-2.56
				c0-3.24-1.92-5.1-5.28-5.1c-4.62,0-11.21,0.54-14.72,0.86c-0.44,0.05-0.88-0.1-1.22-0.39c-0.32-0.29-0.53-0.71-0.55-1.15
				l-0.21-5.38c-0.03-0.82,0.55-1.53,1.36-1.65c3.14-0.5,10.96-1.64,15.85-1.64C273.82,89.32,278.41,93.88,278.41,103.68
				 M186.21,114.39c-3.81,0.36-5.62,2.1-5.62,5.45c0,2.06,0.57,5.54,4.34,5.54c4.48,0,10.57-1.69,10.63-1.71v-9.77L186.21,114.39z
				 M205.26,103.68v28.14c0,0.47-0.2,0.91-0.55,1.22c-0.36,0.31-0.83,0.44-1.28,0.38c-3.29-0.46-4.86-1.49-6.42-2.69
				c-0.06,0.03-7.35,2.97-13.86,2.97c-7.84,0-12.33-4.95-12.33-13.59c0-8.44,4.11-12.18,14.21-12.93l10.54-0.85v-2.56
				c0-3.24-1.92-5.1-5.27-5.1c-4.62,0-11.21,0.54-14.72,0.86c-0.44,0.05-0.88-0.1-1.22-0.39c-0.32-0.29-0.53-0.71-0.54-1.15
				l-0.21-5.38c-0.03-0.82,0.55-1.53,1.36-1.65c3.14-0.5,10.96-1.64,15.84-1.64C200.67,89.32,205.26,93.88,205.26,103.68
				 M70.62,83.45h-3.54c-3.96,0-6.22,0.3-7.36,0.53v16.76c1.89,0.13,5.53,0.32,10.43,0.27c6.32-0.07,10.24-3.42,10.24-8.75
				C80.39,88,77.83,83.45,70.62,83.45 M91.01,130.51c0.22,0.5,0.17,1.07-0.12,1.53c-0.3,0.46-0.8,0.73-1.36,0.73h-7.52
				c-0.63,0-1.22-0.38-1.47-0.96l-9.63-21.68c-4.79-0.03-8.95-0.29-11.2-0.45v21.47c0,0.89-0.71,1.61-1.61,1.61h-6.73
				c-0.89,0-1.61-0.72-1.61-1.61V76.79c0-0.82,0.62-1.51,1.44-1.6c8.62-0.97,15.53-1.07,18.1-1.07c0.88,0,1.36,0,1.36,0
				c16.55,0,20.03,9.78,20.03,17.97c0,6.84-3.27,11.79-9.99,15.12L91.01,130.51z M351.18,125.88l0.28,5.33
				c0.04,0.8-0.52,1.51-1.31,1.66c-2.26,0.42-5.36,0.92-7.3,0.92c-9.77,0-12.75-3.74-12.75-15.99V99.09h-3.75
				c-0.89,0-1.61-0.72-1.61-1.62v-5.53c0-0.89,0.72-1.61,1.61-1.61h3.75v-6.58c0-0.75,0.5-1.39,1.22-1.57l6.48-1.58
				c0.48-0.11,0.98-0.01,1.37,0.29c0.39,0.31,0.62,0.77,0.62,1.27v8.16h9.86c0.9,0,1.61,0.72,1.61,1.61v5.53
				c0,0.89-0.71,1.62-1.61,1.62h-9.86v17.35c0,6,0.21,8.08,4.42,8.08c1.55,0,3.98-0.11,5.29-0.18
				C350.37,124.33,351.14,124.98,351.18,125.88 M125.25,111.34c0-9.49-2.58-13.18-9.19-13.18c-6.85,0-9.27,3.45-9.27,13.18
				c0,8.83,1.48,13.6,9.27,13.6C123.74,124.94,125.25,119.96,125.25,111.34 M135.11,111.34c0,15.46-5.87,22.35-19.05,22.35
				c-13.23,0-19.14-6.9-19.14-22.35c0-15.23,5.91-22.03,19.14-22.03C129.05,89.32,135.11,96.31,135.11,111.34 M165.71,125.88
				l0.28,5.33c0.04,0.8-0.52,1.51-1.31,1.66c-2.25,0.42-5.36,0.92-7.3,0.92c-9.77,0-12.75-3.74-12.75-15.99V99.09h-3.75
				c-0.89,0-1.62-0.72-1.62-1.62v-5.53c0-0.89,0.72-1.61,1.62-1.61h3.75v-6.58c0-0.75,0.5-1.39,1.22-1.57l6.48-1.58
				c0.48-0.11,0.98-0.01,1.37,0.29c0.39,0.31,0.63,0.77,0.63,1.27v8.16h9.86c0.9,0,1.62,0.72,1.62,1.61v5.53
				c0,0.89-0.71,1.62-1.62,1.62h-9.86v17.35c0,6,0.21,8.08,4.42,8.08c1.56,0,3.98-0.11,5.29-0.18
				C164.89,124.33,165.67,124.98,165.71,125.88"/>
		</g>
	</g>
	<rect x="557.54" y="33.34" class="st1" width="2.08" height="149.86"/>
	<g class="st2">
		<path class="st0" d="M645.79,101.95c0,10.76-2.02,19.03-6.05,24.81c-4.03,5.78-9.8,8.67-17.3,8.67c-7.53,0-13.31-2.88-17.34-8.65
			c-4.03-5.77-6.05-14.07-6.05-24.92c0-10.76,2.02-19.01,6.05-24.75c4.03-5.74,9.84-8.61,17.43-8.61c7.5,0,13.25,2.88,17.25,8.65
			C643.79,82.93,645.79,91.19,645.79,101.95z M611.42,101.95c0,7.41,0.93,13.06,2.8,16.94c1.87,3.88,4.61,5.83,8.23,5.83
			c7.29,0,10.94-7.59,10.94-22.77c0-15.18-3.62-22.77-10.85-22.77c-3.68,0-6.45,1.93-8.32,5.8
			C612.35,88.86,611.42,94.51,611.42,101.95z"/>
		<path class="st0" d="M678.83,134.55l-2.36-6.76h-0.27c-1.75,2.91-3.56,4.91-5.42,6c-1.87,1.1-4.22,1.65-7.07,1.65
			c-3.65,0-6.51-1.36-8.6-4.09c-2.09-2.73-3.13-6.52-3.13-11.38c0-5.22,1.43-9.09,4.29-11.63c2.86-2.53,7.14-3.94,12.83-4.2
			l6.58-0.27v-3.56c0-4.62-2-6.94-6-6.94c-2.96,0-6.37,1.16-10.23,3.47l-4.09-8.18c4.92-3.11,10.27-4.67,16.05-4.67
			c5.25,0,9.24,1.5,11.98,4.51s4.11,7.27,4.11,12.79v33.26H678.83z M668.56,126.19c2.16,0,3.89-0.97,5.18-2.91
			c1.29-1.94,1.93-4.53,1.93-7.76v-4.18l-3.65,0.18c-2.7,0.15-4.68,0.92-5.94,2.31c-1.26,1.39-1.89,3.47-1.89,6.23
			C664.2,124.14,665.66,126.19,668.56,126.19z"/>
		<path class="st0" d="M708.72,107.87l2.98-5.91l9.78-16.94h12.54l-12.54,20.32l13.39,29.22h-12.41l-8.94-20.95l-4.62,4.18v16.76
			h-11.83V65.36h11.83v32.6l-0.53,9.92H708.72z"/>
		<path class="st0" d="M747.9,134.55l-12.94-49.54h12.27l6.31,28.68c0.27,1.33,0.58,3.28,0.96,5.85c0.37,2.57,0.6,4.41,0.69,5.54
			h0.18c0.03-0.89,0.16-2.16,0.38-3.82s0.45-3.19,0.69-4.58c0.24-1.39,2.52-11.95,6.85-31.66h12.27l-12.99,49.54H747.9z"/>
		<path class="st0" d="M780.18,72.07c0-1.96,0.57-3.5,1.71-4.65c1.14-1.14,2.73-1.71,4.78-1.71c1.93,0,3.47,0.57,4.62,1.71
			s1.73,2.69,1.73,4.65c0,2.02-0.59,3.58-1.78,4.69c-1.19,1.11-2.71,1.67-4.58,1.67c-1.96,0-3.53-0.56-4.71-1.67
			C780.77,75.65,780.18,74.09,780.18,72.07z M792.5,134.55h-11.83V85.01h11.83V134.55z"/>
		<path class="st0" d="M814.47,134.55h-11.83V65.36h11.83V134.55z"/>
		<path class="st0" d="M836.21,134.55h-11.83V65.36h11.83V134.55z"/>
		<path class="st0" d="M864.4,135.44c-6.2,0-11.08-2.2-14.65-6.6c-3.57-4.4-5.36-10.64-5.36-18.7c0-8.18,1.62-14.57,4.85-19.17
			c3.23-4.59,7.74-6.89,13.52-6.89c5.39,0,9.65,1.96,12.76,5.89c3.11,3.93,4.67,9.43,4.67,16.52v6.31H856.4
			c0.09,4.42,0.99,7.7,2.71,9.85c1.72,2.15,4.09,3.22,7.11,3.22c3.85,0,7.8-1.2,11.83-3.6v9.74
			C874.26,134.3,869.71,135.44,864.4,135.44z M862.67,93.19c-1.69,0-3.08,0.9-4.18,2.69c-1.1,1.79-1.73,4.57-1.91,8.34h12.01
			c-0.06-3.62-0.61-6.36-1.65-8.23C865.9,94.13,864.48,93.19,862.67,93.19z"/>
	</g>
</g>
</svg>
